<svg xmlns="http://www.w3.org/2000/svg" width="32" height="32"><path fill-rule="evenodd" fill="#F4B60D" d="M30 13.976v15.023A3.004 3.004 0 0 1 27 32c-1.654 0-3-1.346-3-3.001V13.976c-1.208-.912-2-2.346-2-3.976 0-1.631.792-3.065 2-3.979V3c0-1.655 1.346-3 3-3s3 1.345 3 3v3.021c1.208.914 2 2.348 2 3.979 0 1.63-.792 3.064-2 3.976zm-4 15.023a1 1 0 1 0 2 0V14.898a4.988 4.988 0 0 1-2 0v14.101zM28 3a1 1 0 1 0-2 0v2.099a5.138 5.138 0 0 1 2 0V3zm1.865 6.158c-.016-.053-.03-.106-.049-.157a2.959 2.959 0 0 0-.378-.738l-.013-.015a3.035 3.035 0 0 0-.617-.628c-.003-.001-.006-.005-.009-.007A3.093 3.093 0 0 0 27 7c-.353 0-.686.072-1 .183-.289.104-.558.25-.799.43-.003.002-.006.006-.01.007a3.055 3.055 0 0 0-.616.628c-.004.005-.01.009-.014.015a3.027 3.027 0 0 0-.426.895A2.92 2.92 0 0 0 24 10c0 .292.055.572.135.839.015.053.03.106.048.159.095.263.217.513.378.736l.014.016c.174.238.381.449.616.626.004.005.007.006.01.008.241.182.51.328.799.43.314.113.647.185 1 .185.352 0 .685-.072 1-.185.289-.102.557-.248.799-.43.003-.002.006-.003.009-.008.236-.177.443-.388.617-.626l.013-.016c.162-.223.284-.473.378-.736.019-.053.033-.106.049-.159.08-.267.135-.547.135-.839a2.92 2.92 0 0 0-.135-.842zM19 25.976v3.023A3.004 3.004 0 0 1 16 32c-1.654 0-3-1.346-3-3.001v-3.023c-1.208-.912-2-2.346-2-3.977 0-1.63.792-3.064 2-3.978V3c0-1.655 1.346-3 3-3s3 1.345 3 3v15.021c1.208.914 2 2.348 2 3.978 0 1.631-.792 3.065-2 3.977zm-4 3.023a1 1 0 1 0 2 0v-2.101a4.988 4.988 0 0 1-2 0v2.101zM17 3a1 1 0 1 0-2 0v14.099a5.138 5.138 0 0 1 2 0V3zm1.865 18.158a2.992 2.992 0 0 0-.427-.895c-.003-.006-.009-.01-.013-.015a3.006 3.006 0 0 0-.617-.627l-.009-.008A3.093 3.093 0 0 0 16 19c-.353 0-.686.072-1 .183-.289.104-.558.25-.799.43l-.01.008c-.235.177-.442.39-.616.627-.004.005-.01.009-.014.015a3.027 3.027 0 0 0-.378.738 2.602 2.602 0 0 0-.048.157 2.92 2.92 0 0 0-.135.841c0 .294.055.573.135.84.015.053.03.106.048.159.095.263.217.513.378.736.004.006.01.01.014.015.174.239.381.45.616.627.004.005.007.006.01.008.241.182.51.328.799.43.314.113.647.186 1 .186.352 0 .685-.073 1-.186.289-.102.557-.248.799-.43.003-.002.006-.003.009-.008.236-.177.443-.388.617-.627.004-.005.01-.009.013-.015a2.945 2.945 0 0 0 .427-.895c.08-.267.135-.546.135-.84a2.92 2.92 0 0 0-.135-.841zM8 13.976v15.023A3.004 3.004 0 0 1 5 32c-1.654 0-3-1.346-3-3.001V13.976C.792 13.064 0 11.63 0 10c0-1.631.792-3.065 2-3.979V3c0-1.655 1.346-3 3-3s3 1.345 3 3v3.021c1.208.914 2 2.348 2 3.979 0 1.63-.792 3.064-2 3.976zM4 28.999a1 1 0 1 0 2 0V14.898a4.988 4.988 0 0 1-2 0v14.101zM6 3a1 1 0 1 0-2 0v2.099a5.138 5.138 0 0 1 2 0V3zm1.865 6.158c-.016-.053-.03-.106-.049-.157a2.959 2.959 0 0 0-.378-.738l-.013-.015a3.035 3.035 0 0 0-.617-.628c-.003-.001-.006-.005-.009-.007A3.077 3.077 0 0 0 6 7.183 2.995 2.995 0 0 0 5 7c-.353 0-.686.072-1 .183-.289.104-.558.25-.799.43-.003.002-.006.006-.01.007a3.055 3.055 0 0 0-.616.628c-.004.005-.01.009-.014.015a3.027 3.027 0 0 0-.378.738 2.602 2.602 0 0 0-.048.157A2.92 2.92 0 0 0 2 10c0 .292.055.572.135.839.015.053.03.106.048.159.095.263.217.513.378.736l.014.016c.174.238.381.449.616.626.004.005.007.006.01.008.241.182.51.328.799.43.314.113.647.185 1 .185.352 0 .685-.072 1-.185.289-.102.558-.248.799-.43.003-.002.006-.003.009-.008.236-.177.443-.388.617-.626l.013-.016c.162-.223.284-.473.378-.736.019-.053.033-.106.049-.159.08-.267.135-.547.135-.839a2.92 2.92 0 0 0-.135-.842z"/></svg>