<svg xmlns="http://www.w3.org/2000/svg" width="14" height="14"><path fill-rule="evenodd" opacity=".2" fill="#FFF" d="M13.831 12.832l-.998.999a.471.471 0 0 1-.665 0l-1.996-1.997a.47.47 0 0 1 0-.665l.053-.054-.938-.938c-.032-.032-.028-.077-.048-.115-.976.794-2.206 1.29-3.563 1.29a5.677 5.677 0 1 1 5.677-5.676c0 1.357-.496 2.586-1.291 3.563.038.019.083.016.115.047l.939.939.053-.054a.47.47 0 0 1 .666 0l1.996 1.996a.47.47 0 0 1 0 .665zM5.676 2.186a3.49 3.49 0 1 0 0 6.98 3.49 3.49 0 0 0 0-6.98z"/></svg>