<svg xmlns="http://www.w3.org/2000/svg" width="32" height="32"><path fill-rule="evenodd" fill="#F4B60D" d="M30.391 19.321l-3.065.613c-.154.443-.334.873-.536 1.29l1.735 2.604c.53.792.424 1.849-.25 2.523l-1.923 1.924a1.998 1.998 0 0 1-2.524.25l-2.603-1.735c-.416.201-.846.382-1.29.536l-.614 3.065A2 2 0 0 1 17.36 32h-2.72a1.998 1.998 0 0 1-1.961-1.609l-.614-3.065a11.989 11.989 0 0 1-1.29-.536l-2.603 1.735a1.997 1.997 0 0 1-2.524-.25l-1.924-1.924a2 2 0 0 1-.249-2.523l1.735-2.604a12.092 12.092 0 0 1-.536-1.289l-3.066-.614A2 2 0 0 1 0 17.36v-2.721a2 2 0 0 1 1.608-1.961l3.066-.613c.154-.444.334-.873.536-1.29L3.475 8.171a2 2 0 0 1 .249-2.523l1.924-1.924a2.002 2.002 0 0 1 2.524-.25l2.603 1.736c.416-.202.846-.382 1.289-.537l.615-3.065A1.998 1.998 0 0 1 14.64 0h2.72c.953 0 1.775.672 1.961 1.608l.614 3.065c.443.155.873.334 1.29.537l2.603-1.736a2.002 2.002 0 0 1 2.524.25l1.923 1.924c.674.674.78 1.731.25 2.523l-1.735 2.604c.201.416.382.846.536 1.289l3.065.614A2 2 0 0 1 32 14.639v2.721a2 2 0 0 1-1.609 1.961zm-.392-4.682l-3.065-.614a2 2 0 0 1-1.497-1.304 10.09 10.09 0 0 0-.448-1.075 2.003 2.003 0 0 1 .137-1.98l1.735-2.604-1.924-1.924-2.603 1.736a2.004 2.004 0 0 1-1.982.135 9.964 9.964 0 0 0-1.075-.447 1.998 1.998 0 0 1-1.303-1.496L17.36 2l-2.72.001-.615 3.065a2 2 0 0 1-1.303 1.496c-.371.129-.729.28-1.076.448a2.006 2.006 0 0 1-1.98-.136L7.062 5.138 5.139 7.062l1.735 2.604c.394.589.445 1.343.136 1.981-.169.348-.319.706-.448 1.075a1.997 1.997 0 0 1-1.496 1.304L2 14.639l.001 2.721 3.065.614a1.997 1.997 0 0 1 1.496 1.304c.129.37.281.728.449 1.075a2.005 2.005 0 0 1-.137 1.981l-1.735 2.603 1.923 1.924 2.604-1.735a1.998 1.998 0 0 1 1.981-.136 9.98 9.98 0 0 0 1.076.447 1.998 1.998 0 0 1 1.303 1.496L14.64 30h2.72l.615-3.067a1.998 1.998 0 0 1 1.303-1.496c.37-.129.729-.28 1.075-.448a1.998 1.998 0 0 1 1.981.137l2.603 1.735 1.924-1.924-1.735-2.603a2 2 0 0 1-.136-1.982c.169-.348.318-.706.447-1.075a2 2 0 0 1 1.497-1.304L30 17.36l-.001-2.721zM16 23a7 7 0 1 1 .001-13.999A7 7 0 0 1 16 23zm0-13.125a6.126 6.126 0 0 0 0 12.25 6.126 6.126 0 0 0 0-12.25zM16 20a4 4 0 1 1 0-8 4 4 0 1 1 0 8zm0-7.001A3.001 3.001 0 0 0 16 19a3.001 3.001 0 0 0 0-6.001z"/></svg>