<svg xmlns="http://www.w3.org/2000/svg" width="32" height="26"><path fill-rule="evenodd" fill="#F4B60D" d="M29 23h-1.142c-.448 1.72-2 2.999-3.858 2.999-1.859 0-3.412-1.279-3.859-2.999h-5.283c-.447 1.72-2 2.999-3.858 2.999-1.859 0-3.412-1.279-3.859-2.999H6c-1.654 0-3-1.346-3-3v-3.001h-.001c-1.654 0-3-1.345-3-2.999V3c0-1.655 1.346-3 3-3H18c1.655 0 3 1.345 3 3v2h4a3 3 0 0 1 2.497 1.335l3.999 6c.331.495.504 1.071.504 1.665v6c0 1.654-1.345 3-3 3zm-5 1a2 2 0 1 0-.001-4.001A2 2 0 0 0 24 24zm-13 0a2 2 0 1 0-.001-4.001A2 2 0 0 0 11 24zm8-17V3a1 1 0 0 0-1-1H2.999a1 1 0 0 0-1 1v11c0 .552.449 1 1 1H18a1 1 0 0 0 1-1V7zm11 7a.995.995 0 0 0-.168-.555l-4-6A1 1 0 0 0 25 7h-4v7a3.002 3.002 0 0 1-3 2.999H5V20a1 1 0 0 0 1 1h1.141c.447-1.721 2-3 3.859-3 1.858 0 3.411 1.279 3.858 3h5.283c.447-1.721 2-3 3.859-3 1.858 0 3.41 1.279 3.858 3H29a1 1 0 0 0 1-1v-6zm-3 2h-4a1 1 0 0 1-1-1V9a1 1 0 0 1 1-1h1c.334 0 .647.166.832.445l3 4.5c.11.164.168.357.168.555V15a1 1 0 0 1-1 1zm0-2.5L24 9h-1v6h4v-1.5z"/></svg>