<svg 
 xmlns="http://www.w3.org/2000/svg"
 xmlns:xlink="http://www.w3.org/1999/xlink"
 width="16px" height="13px">
<path fill-rule="evenodd"  opacity="0.2" fill="rgb(255, 255, 255)"
 d="M15.000,12.968 L1.000,12.968 C0.448,12.968 -0.000,12.520 -0.000,11.968 L-0.000,1.968 C-0.000,1.416 0.448,0.968 1.000,0.968 L15.000,0.968 C15.552,0.968 16.000,1.416 16.000,1.968 L16.000,11.968 C16.000,12.520 15.552,12.968 15.000,12.968 ZM4.000,9.999 L12.000,9.999 L12.000,8.999 L4.000,8.999 L4.000,9.999 ZM4.000,7.999 L12.000,7.999 L12.000,6.999 L4.000,6.999 L4.000,7.999 ZM14.000,3.000 L12.000,3.000 L12.000,4.999 L14.000,4.999 L14.000,3.000 Z"/>
</svg>