<svg 
 xmlns="http://www.w3.org/2000/svg"
 xmlns:xlink="http://www.w3.org/1999/xlink"
 width="10px" height="16px">
<path fill-rule="evenodd"  opacity="0.2" fill="rgb(255, 255, 255)"
 d="M9.000,15.999 L1.000,15.999 C0.448,15.999 -0.000,15.551 -0.000,14.999 L-0.000,0.999 C-0.000,0.447 0.448,-0.001 1.000,-0.001 L9.000,-0.001 C9.552,-0.001 10.000,0.447 10.000,0.999 L10.000,14.999 C10.000,15.551 9.552,15.999 9.000,15.999 ZM5.000,14.999 C5.552,14.999 6.000,14.775 6.000,14.499 C6.000,14.223 5.552,13.999 5.000,13.999 C4.448,13.999 4.000,14.223 4.000,14.499 C4.000,14.775 4.448,14.999 5.000,14.999 ZM9.000,1.999 L1.000,1.999 L1.000,12.999 L9.000,12.999 L9.000,1.999 Z"/>
</svg>