<svg 
 xmlns="http://www.w3.org/2000/svg"
 xmlns:xlink="http://www.w3.org/1999/xlink"
 width="32px" height="32px">
<path fill-rule="evenodd"  fill="rgb(244, 182, 13)"
 d="M30.000,13.976 L30.000,28.999 C30.000,30.654 28.654,32.000 27.000,32.000 C25.346,32.000 24.000,30.654 24.000,28.999 L24.000,13.976 C22.792,13.064 22.000,11.630 22.000,10.000 C22.000,8.369 22.792,6.935 24.000,6.021 L24.000,3.000 C24.000,1.345 25.346,-0.000 27.000,-0.000 C28.654,-0.000 30.000,1.345 30.000,3.000 L30.000,6.021 C31.208,6.935 32.000,8.369 32.000,10.000 C32.000,11.630 31.208,13.064 30.000,13.976 ZM26.000,28.999 C26.000,29.552 26.447,30.000 27.000,30.000 C27.553,30.000 28.000,29.552 28.000,28.999 L28.000,14.898 C27.677,14.964 27.343,15.000 27.000,15.000 C26.657,15.000 26.323,14.964 26.000,14.898 L26.000,28.999 ZM28.000,3.000 C28.000,2.447 27.553,2.000 27.000,2.000 C26.447,2.000 26.000,2.447 26.000,3.000 L26.000,5.099 C26.323,5.035 26.657,5.000 27.000,5.000 C27.343,5.000 27.677,5.035 28.000,5.099 L28.000,3.000 ZM29.865,9.158 C29.849,9.105 29.835,9.052 29.816,9.001 C29.722,8.738 29.600,8.488 29.438,8.263 C29.434,8.257 29.429,8.253 29.425,8.248 C29.251,8.011 29.044,7.798 28.808,7.620 C28.805,7.619 28.802,7.615 28.799,7.613 C28.557,7.433 28.289,7.287 28.000,7.183 C27.685,7.072 27.352,7.000 27.000,7.000 C26.647,7.000 26.314,7.072 26.000,7.183 C25.711,7.287 25.442,7.433 25.201,7.613 C25.198,7.615 25.195,7.619 25.191,7.620 C24.956,7.798 24.749,8.011 24.575,8.248 C24.571,8.253 24.565,8.257 24.561,8.263 C24.400,8.488 24.278,8.738 24.183,9.001 C24.165,9.052 24.150,9.105 24.135,9.158 C24.055,9.425 24.000,9.705 24.000,10.000 C24.000,10.292 24.055,10.572 24.135,10.839 C24.150,10.892 24.165,10.945 24.183,10.998 C24.278,11.261 24.400,11.511 24.561,11.734 C24.565,11.740 24.571,11.744 24.575,11.750 C24.749,11.988 24.956,12.199 25.191,12.376 C25.195,12.381 25.198,12.382 25.201,12.384 C25.442,12.566 25.711,12.712 26.000,12.814 C26.314,12.927 26.647,12.999 27.000,12.999 C27.352,12.999 27.685,12.927 28.000,12.814 C28.289,12.712 28.557,12.566 28.799,12.384 C28.802,12.382 28.805,12.381 28.808,12.376 C29.044,12.199 29.251,11.988 29.425,11.750 C29.429,11.744 29.434,11.740 29.438,11.734 C29.600,11.511 29.722,11.261 29.816,10.998 C29.835,10.945 29.849,10.892 29.865,10.839 C29.945,10.572 30.000,10.292 30.000,10.000 C30.000,9.705 29.945,9.425 29.865,9.158 ZM19.000,25.976 L19.000,28.999 C19.000,30.654 17.654,32.000 16.000,32.000 C14.346,32.000 13.000,30.654 13.000,28.999 L13.000,25.976 C11.792,25.064 11.000,23.630 11.000,21.999 C11.000,20.369 11.792,18.935 13.000,18.021 L13.000,3.000 C13.000,1.345 14.346,-0.000 16.000,-0.000 C17.654,-0.000 19.000,1.345 19.000,3.000 L19.000,18.021 C20.208,18.935 21.000,20.369 21.000,21.999 C21.000,23.630 20.208,25.064 19.000,25.976 ZM15.000,28.999 C15.000,29.552 15.447,30.000 16.000,30.000 C16.553,30.000 17.000,29.552 17.000,28.999 L17.000,26.898 C16.677,26.964 16.343,27.000 16.000,27.000 C15.657,27.000 15.323,26.964 15.000,26.898 L15.000,28.999 ZM17.000,3.000 C17.000,2.447 16.553,2.000 16.000,2.000 C15.447,2.000 15.000,2.447 15.000,3.000 L15.000,17.099 C15.323,17.035 15.657,17.000 16.000,17.000 C16.343,17.000 16.677,17.035 17.000,17.099 L17.000,3.000 ZM18.865,21.158 C18.850,21.105 18.835,21.052 18.816,21.001 C18.722,20.738 18.599,20.488 18.438,20.263 C18.435,20.257 18.429,20.253 18.425,20.248 C18.251,20.011 18.044,19.798 17.808,19.621 C17.805,19.619 17.802,19.615 17.799,19.613 C17.557,19.433 17.289,19.287 17.000,19.183 C16.685,19.072 16.352,19.000 16.000,19.000 C15.647,19.000 15.314,19.072 15.000,19.183 C14.711,19.287 14.442,19.433 14.201,19.613 C14.198,19.615 14.195,19.619 14.191,19.621 C13.956,19.798 13.749,20.011 13.575,20.248 C13.571,20.253 13.565,20.257 13.561,20.263 C13.400,20.488 13.278,20.738 13.183,21.001 C13.165,21.052 13.150,21.105 13.135,21.158 C13.055,21.425 13.000,21.705 13.000,21.999 C13.000,22.293 13.055,22.572 13.135,22.839 C13.150,22.892 13.165,22.945 13.183,22.998 C13.278,23.261 13.400,23.511 13.561,23.734 C13.565,23.740 13.571,23.744 13.575,23.749 C13.749,23.988 13.956,24.199 14.191,24.376 C14.195,24.381 14.198,24.382 14.201,24.384 C14.442,24.566 14.711,24.712 15.000,24.814 C15.314,24.927 15.647,25.000 16.000,25.000 C16.352,25.000 16.685,24.927 17.000,24.814 C17.289,24.712 17.557,24.566 17.799,24.384 C17.802,24.382 17.805,24.381 17.808,24.376 C18.044,24.199 18.251,23.988 18.425,23.749 C18.429,23.744 18.435,23.740 18.438,23.734 C18.599,23.511 18.722,23.261 18.816,22.998 C18.835,22.945 18.850,22.892 18.865,22.839 C18.945,22.572 19.000,22.293 19.000,21.999 C19.000,21.705 18.945,21.425 18.865,21.158 ZM8.000,13.976 L8.000,28.999 C8.000,30.654 6.654,32.000 5.000,32.000 C3.346,32.000 2.000,30.654 2.000,28.999 L2.000,13.976 C0.792,13.064 -0.000,11.630 -0.000,10.000 C-0.000,8.369 0.792,6.935 2.000,6.021 L2.000,3.000 C2.000,1.345 3.346,-0.000 5.000,-0.000 C6.654,-0.000 8.000,1.345 8.000,3.000 L8.000,6.021 C9.208,6.935 10.000,8.369 10.000,10.000 C10.000,11.630 9.208,13.064 8.000,13.976 ZM4.000,28.999 C4.000,29.552 4.447,30.000 5.000,30.000 C5.553,30.000 6.000,29.552 6.000,28.999 L6.000,14.898 C5.677,14.964 5.343,15.000 5.000,15.000 C4.657,15.000 4.323,14.964 4.000,14.898 L4.000,28.999 ZM6.000,3.000 C6.000,2.447 5.553,2.000 5.000,2.000 C4.447,2.000 4.000,2.447 4.000,3.000 L4.000,5.099 C4.323,5.035 4.657,5.000 5.000,5.000 C5.343,5.000 5.677,5.035 6.000,5.099 L6.000,3.000 ZM7.865,9.158 C7.849,9.105 7.835,9.052 7.816,9.001 C7.722,8.738 7.600,8.488 7.438,8.263 C7.434,8.257 7.429,8.253 7.425,8.248 C7.251,8.011 7.044,7.798 6.808,7.620 C6.805,7.619 6.802,7.615 6.799,7.613 C6.558,7.433 6.289,7.287 6.000,7.183 C5.685,7.072 5.352,7.000 5.000,7.000 C4.647,7.000 4.314,7.072 4.000,7.183 C3.711,7.287 3.442,7.433 3.201,7.613 C3.198,7.615 3.195,7.619 3.191,7.620 C2.956,7.798 2.749,8.011 2.575,8.248 C2.571,8.253 2.565,8.257 2.561,8.263 C2.400,8.488 2.278,8.738 2.183,9.001 C2.165,9.052 2.150,9.105 2.135,9.158 C2.055,9.425 2.000,9.705 2.000,10.000 C2.000,10.292 2.055,10.572 2.135,10.839 C2.150,10.892 2.165,10.945 2.183,10.998 C2.278,11.261 2.400,11.511 2.561,11.734 C2.565,11.740 2.571,11.744 2.575,11.750 C2.749,11.988 2.956,12.199 3.191,12.376 C3.195,12.381 3.198,12.382 3.201,12.384 C3.442,12.566 3.711,12.712 4.000,12.814 C4.314,12.927 4.647,12.999 5.000,12.999 C5.352,12.999 5.685,12.927 6.000,12.814 C6.289,12.712 6.558,12.566 6.799,12.384 C6.802,12.382 6.805,12.381 6.808,12.376 C7.044,12.199 7.251,11.988 7.425,11.750 C7.429,11.744 7.434,11.740 7.438,11.734 C7.600,11.511 7.722,11.261 7.816,10.998 C7.835,10.945 7.849,10.892 7.865,10.839 C7.945,10.572 8.000,10.292 8.000,10.000 C8.000,9.705 7.945,9.425 7.865,9.158 Z"/>
</svg>