<svg 
 xmlns="http://www.w3.org/2000/svg"
 xmlns:xlink="http://www.w3.org/1999/xlink"
 width="14px" height="14px">
<path fill-rule="evenodd"  opacity="0.2" fill="rgb(255, 255, 255)"
 d="M13.831,12.832 L12.833,13.831 C12.649,14.014 12.351,14.014 12.168,13.831 L10.172,11.834 C9.988,11.651 9.988,11.353 10.172,11.169 L10.225,11.115 L9.287,10.177 C9.255,10.145 9.259,10.100 9.239,10.062 C8.263,10.856 7.033,11.352 5.676,11.352 C2.541,11.352 -0.000,8.811 -0.000,5.676 C-0.000,2.541 2.541,-0.001 5.676,-0.001 C8.811,-0.001 11.353,2.541 11.353,5.676 C11.353,7.033 10.857,8.262 10.062,9.239 C10.100,9.258 10.145,9.255 10.177,9.286 L11.116,10.225 L11.169,10.171 C11.353,9.987 11.651,9.987 11.835,10.171 L13.831,12.167 C14.015,12.351 14.015,12.649 13.831,12.832 ZM5.676,2.186 C3.749,2.186 2.186,3.748 2.186,5.676 C2.186,7.603 3.749,9.166 5.676,9.166 C7.604,9.166 9.166,7.603 9.166,5.676 C9.166,3.748 7.604,2.186 5.676,2.186 Z"/>
</svg>