<svg 
 xmlns="http://www.w3.org/2000/svg"
 xmlns:xlink="http://www.w3.org/1999/xlink"
 width="32px" height="32px">
<path fill-rule="evenodd"  fill="rgb(244, 182, 13)"
 d="M30.391,19.321 L27.326,19.934 C27.172,20.377 26.992,20.807 26.790,21.224 L28.525,23.828 C29.055,24.620 28.949,25.677 28.275,26.351 L26.352,28.275 C25.965,28.662 25.453,28.861 24.936,28.861 C24.553,28.861 24.167,28.751 23.828,28.525 L21.225,26.790 C20.809,26.991 20.379,27.172 19.935,27.326 L19.321,30.391 C19.135,31.327 18.313,32.000 17.360,32.000 L14.640,32.000 C13.686,32.000 12.865,31.327 12.679,30.391 L12.065,27.326 C11.622,27.172 11.192,26.992 10.775,26.790 L8.172,28.525 C7.834,28.751 7.447,28.861 7.063,28.861 C6.547,28.861 6.035,28.662 5.648,28.275 L3.724,26.351 C3.051,25.677 2.945,24.620 3.475,23.828 L5.210,21.224 C5.009,20.808 4.828,20.378 4.674,19.935 L1.608,19.321 C0.673,19.134 -0.000,18.313 -0.000,17.360 L-0.000,14.639 C-0.000,13.686 0.673,12.865 1.608,12.678 L4.674,12.065 C4.828,11.621 5.008,11.192 5.210,10.775 L3.475,8.171 C2.945,7.379 3.051,6.322 3.724,5.648 L5.648,3.724 C6.035,3.338 6.547,3.138 7.063,3.138 C7.447,3.138 7.833,3.248 8.172,3.474 L10.775,5.210 C11.191,5.008 11.621,4.828 12.064,4.673 L12.679,1.608 C12.865,0.672 13.686,-0.000 14.640,-0.000 L17.360,-0.000 C18.313,-0.000 19.135,0.672 19.321,1.608 L19.935,4.673 C20.378,4.828 20.808,5.007 21.225,5.210 L23.828,3.474 C24.166,3.248 24.553,3.138 24.936,3.138 C25.453,3.138 25.965,3.338 26.352,3.724 L28.275,5.648 C28.949,6.322 29.055,7.379 28.525,8.171 L26.790,10.775 C26.991,11.191 27.172,11.621 27.326,12.064 L30.391,12.678 C31.327,12.865 32.000,13.686 32.000,14.639 L32.000,17.360 C32.000,18.313 31.327,19.134 30.391,19.321 ZM29.999,14.639 L26.934,14.025 C26.239,13.886 25.670,13.390 25.437,12.721 C25.308,12.351 25.157,11.993 24.989,11.646 C24.682,11.008 24.733,10.255 25.126,9.666 L26.861,7.062 L24.937,5.138 L22.334,6.874 C22.000,7.096 21.613,7.209 21.225,7.209 C20.927,7.209 20.629,7.143 20.352,7.009 C20.005,6.840 19.646,6.691 19.277,6.562 C18.608,6.329 18.112,5.760 17.974,5.066 L17.360,2.000 L14.640,2.001 L14.025,5.066 C13.887,5.760 13.390,6.329 12.722,6.562 C12.351,6.691 11.993,6.842 11.646,7.010 C11.370,7.143 11.072,7.209 10.775,7.209 C10.387,7.209 10.000,7.096 9.666,6.874 L7.062,5.138 L5.139,7.062 L6.874,9.666 C7.268,10.255 7.319,11.009 7.010,11.647 C6.841,11.995 6.691,12.353 6.562,12.722 C6.330,13.391 5.761,13.887 5.066,14.026 L2.000,14.639 L2.001,17.360 L5.066,17.974 C5.761,18.113 6.330,18.609 6.562,19.278 C6.691,19.648 6.843,20.006 7.011,20.353 C7.318,20.991 7.267,21.744 6.874,22.334 L5.139,24.937 L7.062,26.861 L9.666,25.126 C10.000,24.903 10.387,24.789 10.775,24.789 C11.073,24.789 11.371,24.856 11.647,24.990 C11.995,25.159 12.353,25.308 12.723,25.437 C13.392,25.670 13.888,26.239 14.026,26.933 L14.640,30.000 L17.360,30.000 L17.975,26.933 C18.113,26.239 18.609,25.670 19.278,25.437 C19.648,25.308 20.007,25.157 20.353,24.989 C20.630,24.856 20.928,24.789 21.225,24.789 C21.613,24.789 22.000,24.903 22.334,25.126 L24.937,26.861 L26.861,24.937 L25.126,22.334 C24.732,21.744 24.681,20.990 24.990,20.352 C25.159,20.004 25.308,19.646 25.437,19.277 C25.670,18.608 26.239,18.112 26.934,17.973 L30.000,17.360 L29.999,14.639 ZM16.000,23.000 C12.135,23.000 9.000,19.865 9.000,16.000 C9.000,12.134 12.135,9.000 16.000,9.000 C19.865,9.000 23.000,12.134 23.000,16.000 C23.000,19.865 19.865,23.000 16.000,23.000 ZM16.000,9.875 C12.618,9.875 9.875,12.618 9.875,16.000 C9.875,19.381 12.618,22.125 16.000,22.125 C19.382,22.125 22.125,19.381 22.125,16.000 C22.125,12.618 19.382,9.875 16.000,9.875 ZM16.000,20.000 C13.790,20.000 12.000,18.209 12.000,16.000 C12.000,13.789 13.790,12.000 16.000,12.000 C18.210,12.000 20.000,13.789 20.000,16.000 C20.000,18.209 18.210,20.000 16.000,20.000 ZM16.000,12.999 C14.344,12.999 13.000,14.343 13.000,16.000 C13.000,17.656 14.344,19.000 16.000,19.000 C17.656,19.000 19.000,17.656 19.000,16.000 C19.000,14.343 17.656,12.999 16.000,12.999 Z"/>
</svg>