<svg 
 xmlns="http://www.w3.org/2000/svg"
 xmlns:xlink="http://www.w3.org/1999/xlink"
 width="32px" height="26px">
<path fill-rule="evenodd"  fill="rgb(244, 182, 13)"
 d="M29.000,23.000 L27.858,23.000 C27.410,24.720 25.858,25.999 24.000,25.999 C22.141,25.999 20.588,24.720 20.141,23.000 L14.858,23.000 C14.411,24.720 12.858,25.999 11.000,25.999 C9.141,25.999 7.588,24.720 7.141,23.000 L6.000,23.000 C4.346,23.000 3.000,21.654 3.000,20.000 L3.000,16.999 L2.999,16.999 C1.345,16.999 -0.001,15.654 -0.001,14.000 L-0.001,3.000 C-0.001,1.345 1.345,-0.000 2.999,-0.000 L18.000,-0.000 C19.655,-0.000 21.000,1.345 21.000,3.000 L21.000,5.000 L25.000,5.000 C26.004,5.000 26.938,5.499 27.497,6.335 L31.496,12.335 C31.827,12.830 32.000,13.406 32.000,14.000 L32.000,20.000 C32.000,21.654 30.655,23.000 29.000,23.000 ZM24.000,24.000 C25.104,24.000 26.000,23.104 26.000,22.000 C26.000,20.895 25.104,20.000 24.000,20.000 C22.895,20.000 22.000,20.895 22.000,22.000 C22.000,23.104 22.895,24.000 24.000,24.000 ZM11.000,24.000 C12.104,24.000 13.000,23.104 13.000,22.000 C13.000,20.895 12.104,20.000 11.000,20.000 C9.895,20.000 9.000,20.895 9.000,22.000 C9.000,23.104 9.895,24.000 11.000,24.000 ZM19.000,7.000 L19.000,5.000 L19.000,3.000 C19.000,2.447 18.553,2.000 18.000,2.000 L2.999,2.000 C2.448,2.000 1.999,2.447 1.999,3.000 L1.999,14.000 C1.999,14.552 2.448,15.000 2.999,15.000 L18.000,15.000 C18.553,15.000 19.000,14.552 19.000,14.000 L19.000,7.000 ZM30.000,14.000 C30.000,13.802 29.942,13.609 29.832,13.445 L25.832,7.445 C25.647,7.167 25.334,7.000 25.000,7.000 L21.000,7.000 L21.000,14.000 C21.000,15.654 19.655,16.999 18.000,16.999 L5.000,16.999 L5.000,20.000 C5.000,20.552 5.448,21.000 6.000,21.000 L7.141,21.000 C7.588,19.279 9.141,18.000 11.000,18.000 C12.858,18.000 14.411,19.279 14.858,21.000 L20.141,21.000 C20.588,19.279 22.141,18.000 24.000,18.000 C25.858,18.000 27.410,19.279 27.858,21.000 L29.000,21.000 C29.553,21.000 30.000,20.552 30.000,20.000 L30.000,14.000 ZM27.000,16.000 L23.000,16.000 C22.448,16.000 22.000,15.552 22.000,15.000 L22.000,9.000 C22.000,8.447 22.448,8.000 23.000,8.000 L24.000,8.000 C24.334,8.000 24.647,8.166 24.832,8.445 L27.832,12.945 C27.942,13.109 28.000,13.302 28.000,13.500 L28.000,15.000 C28.000,15.552 27.553,16.000 27.000,16.000 ZM27.000,13.500 L24.000,9.000 L23.000,9.000 L23.000,15.000 L27.000,15.000 L27.000,13.500 Z"/>
</svg>